<svg width="100" height="100" viewBox="0 0 100 100" fill="none" xmlns="http://www.w3.org/2000/svg">
<path d="M50.0061 83.4375C55.2451 83.4375 59.7049 81.6039 63.3854 77.9366C67.066 74.2693 68.9062 69.8162 68.9062 64.5772C68.9062 59.3382 67.069 54.8785 63.3946 51.1979C59.7202 47.5174 55.2584 45.6771 50.0092 45.6771C44.76 45.6771 40.3038 47.5143 36.6406 51.1887C32.9774 54.8632 31.1458 59.325 31.1458 64.5742C31.1458 69.8233 32.9795 74.2795 36.6468 77.9427C40.3141 81.6059 44.7672 83.4375 50.0061 83.4375ZM37.9687 46.7188C39.3229 45.7813 40.764 45.0336 42.2921 44.4757C43.8201 43.9178 45.4172 43.5023 47.0833 43.2292L37.8125 24.8438H27.0833L37.9687 46.7188ZM62.0312 46.7188L73.0208 24.8438H62.2396L52.9687 43.125L53.0587 43.2193C54.7001 43.5037 56.2674 43.9334 57.7604 44.5084C59.2535 45.0835 60.6771 45.8203 62.0312 46.7188ZM31.4583 79.2708C31.8036 79.2676 32.1677 79.2207 32.5506 79.1303C32.9335 79.0399 33.3507 78.9452 33.8021 78.8463C32.1007 76.8724 30.7986 74.6441 29.8958 72.1615C28.9931 69.6788 28.5764 67.066 28.6458 64.3229C28.6458 61.6146 29.1059 59.0451 30.026 56.6146C30.9462 54.184 32.2569 51.9965 33.9583 50.0521C33.4028 49.9826 32.8819 49.9507 32.3958 49.9561C31.9097 49.9616 31.4583 50.0137 31.0417 50.1124C26.9792 50.2111 23.5851 51.6927 20.8594 54.5573C18.1337 57.4219 16.8403 60.8333 16.9792 64.7917C16.9792 68.8542 18.3767 72.283 21.1719 75.0781C23.967 77.8733 27.3958 79.2708 31.4583 79.2708ZM68.5937 79.2708C72.7257 79.3403 76.2413 77.9366 79.1406 75.0598C82.0399 72.183 83.4896 68.6881 83.4896 64.5751C83.4896 60.4622 82.0399 56.97 79.1406 54.0986C76.2413 51.2273 72.7257 49.809 68.5937 49.8438C68.1424 49.8438 67.717 49.8698 67.3177 49.9219C66.9184 49.974 66.5104 50.0174 66.0937 50.0521C67.7951 52.0313 69.1319 54.2595 70.1042 56.737C71.0764 59.2144 71.5625 61.8325 71.5625 64.5913C71.5625 67.3499 71.0764 69.9653 70.1042 72.4375C69.1319 74.9097 67.7951 77.1181 66.0937 79.0625C66.5104 79.1319 66.9184 79.184 67.3177 79.2188C67.717 79.2535 68.1424 79.2708 68.5937 79.2708ZM49.9901 86.0938C47.3578 86.0938 44.8902 85.6771 42.5874 84.8438C40.2845 84.0104 38.1908 82.7951 36.3062 81.1979C35.5396 81.4757 34.7105 81.6667 33.8189 81.7708C32.9272 81.875 32.04 81.9271 31.1572 81.9271C26.4057 81.9271 22.3426 80.2409 18.9681 76.8685C15.5935 73.4963 13.9062 69.4359 13.9062 64.6875C13.9062 59.8958 15.6076 55.7986 19.0104 52.3958C22.4132 48.9931 26.5278 47.3264 31.3542 47.3958C32.1181 47.3958 32.8472 47.4479 33.5417 47.5521C34.2361 47.6563 34.9306 47.7778 35.625 47.9167L22.7083 22.1875H39.5312L50 43.1771L60.5208 22.1875H77.2917L64.5833 47.6042C65.2083 47.4653 65.8507 47.3611 66.5104 47.2917C67.1701 47.2222 67.8472 47.1875 68.5417 47.1875C73.4375 47.1181 77.5955 48.7867 81.0156 52.1935C84.4358 55.6003 86.1458 59.737 86.1458 64.6038C86.1458 69.4134 84.4545 73.503 81.072 76.8726C77.6894 80.2423 73.5821 81.9271 68.75 81.9271C67.8472 81.9271 66.9771 81.875 66.1398 81.7708C65.3024 81.6667 64.4999 81.4757 63.7322 81.1979C61.8441 82.7257 59.7397 83.9236 57.4193 84.7917C55.0988 85.6597 52.6224 86.0938 49.9901 86.0938ZM43.9583 73.3854L46.1979 65.8854L40.1562 61.5625H47.6419L50 53.6458L52.3706 61.5625H59.8958L53.8048 65.8746L56.0883 73.3854L50.0051 68.7553L43.9583 73.3854Z" fill="black"/>
</svg>
