<svg width="100" height="100" viewBox="0 0 100 100" fill="none" xmlns="http://www.w3.org/2000/svg">
<path d="M22.1348 57.6556L48.3327 72.7598C48.8882 73.107 49.4438 73.2806 49.9993 73.2806C50.5549 73.2806 51.1105 73.107 51.666 72.7598L77.7598 57.6556L51.3535 42.3431V55.4681H48.6973V42.3431L22.1348 57.6556ZM48.6973 39.6348V33.1243C46.475 32.7771 44.6348 31.7639 43.1764 30.0848C41.7181 28.4057 40.9889 26.4332 40.9889 24.1675C40.9889 21.6318 41.857 19.4872 43.5931 17.7337C45.3292 15.9803 47.4646 15.1035 49.9993 15.1035C52.5341 15.1035 54.6782 15.9803 56.4316 17.7337C58.1851 19.4872 59.0619 21.6318 59.0619 24.1675C59.0619 26.4332 58.324 28.4057 56.8483 30.0848C55.3726 31.7639 53.541 32.7771 51.3535 33.1243V39.6348L78.6452 55.3639C79.5983 55.9285 80.3314 56.6626 80.8444 57.5663C81.3574 58.4701 81.6139 59.464 81.6139 60.548V64.4507C81.6139 65.5347 81.3574 66.5286 80.8444 67.4324C80.3314 68.336 79.5983 69.0702 78.6452 69.6348L53.0202 84.4264C52.0423 84.982 51.0333 85.2598 49.9934 85.2598C48.9534 85.2598 47.9658 84.982 47.0306 84.4264L21.4056 69.6348C20.416 69.0673 19.6651 68.3367 19.153 67.443C18.6408 66.5492 18.3848 65.5535 18.3848 64.4559V60.5491C18.3848 59.4643 18.6408 58.4708 19.153 57.5685C19.6651 56.6662 20.416 55.9314 21.4056 55.3639L48.6973 39.6348ZM47.0306 74.7389L20.7806 59.5827V64.6348C20.7806 65.1903 20.9195 65.7285 21.1973 66.2493C21.475 66.7702 21.8917 67.2042 22.4473 67.5514L48.3327 82.4473C48.8882 82.7945 49.4438 82.9681 49.9993 82.9681C50.5549 82.9681 51.1105 82.7945 51.666 82.4473L77.5514 67.5514C78.107 67.2042 78.5237 66.7702 78.8014 66.2493C79.0792 65.7285 79.2181 65.1903 79.2181 64.6348V59.5827L53.0202 74.7389C52.077 75.2945 51.0686 75.5723 49.9951 75.5723C48.9215 75.5723 47.9334 75.2945 47.0306 74.7389ZM50.0055 30.5202C51.7722 30.5202 53.2806 29.9018 54.5306 28.6651C55.7806 27.4283 56.4056 25.9266 56.4056 24.1599C56.4056 22.3931 55.7837 20.8848 54.5398 19.6348C53.2959 18.3848 51.7855 17.7598 50.0085 17.7598C48.2316 17.7598 46.7268 18.3817 45.4941 19.6256C44.2615 20.8694 43.6452 22.3798 43.6452 24.1568C43.6452 25.9338 44.2635 27.4386 45.5003 28.6712C46.737 29.9039 48.2388 30.5202 50.0055 30.5202Z" fill="black"/>
</svg>
