<svg width="100" height="100" viewBox="0 0 100 100" fill="none" xmlns="http://www.w3.org/2000/svg">
<path d="M22.9203 69.8437C17.3743 69.8437 12.6678 67.9109 8.80062 64.0453C4.93354 60.1797 3 55.4924 3 49.9833C3 44.4452 4.93368 39.7301 8.80104 35.838C12.6686 31.946 17.3669 30 22.8958 30C25.086 30 27.1873 30.3906 29.1999 31.1719C31.2125 31.9531 33.0521 33.0729 34.7187 34.5312L44.25 42.5L42.1667 44.2187L33.0521 36.4062C31.6285 35.2049 30.0399 34.2795 28.2865 33.6302C26.533 32.9809 24.7312 32.6562 22.881 32.6562C18.0949 32.6562 14.0276 34.3459 10.6791 37.7252C7.33052 41.1044 5.65625 45.1894 5.65625 49.98C5.65625 54.7419 7.33472 58.8002 10.6917 62.1551C14.0485 65.51 18.114 67.1875 22.8879 67.1875C24.6987 67.1875 26.4722 66.8628 28.2083 66.2135C29.9444 65.5642 31.5289 64.6347 32.9618 63.4248L64.9949 34.5315C66.5771 33.0193 68.3712 31.886 70.3772 31.1316C72.3832 30.3772 74.4819 30 76.6734 30C82.2194 30 86.926 31.9328 90.7931 35.7984C94.6602 39.6641 96.5937 44.3514 96.5937 49.8604C96.5937 55.3985 94.66 60.1136 90.7926 64.0057C86.9252 67.8977 82.2269 69.8437 76.6979 69.8437C74.4879 69.8437 72.399 69.4358 70.431 68.6198C68.4631 67.8038 66.6111 66.7014 64.875 65.3125L55.6042 57.2917L57.4792 55.5208L66.5323 63.4167C67.9274 64.7153 69.5104 65.6684 71.2812 66.276C73.0521 66.8837 74.8626 67.1875 76.7127 67.1875C81.4988 67.1875 85.5661 65.4978 88.9147 62.1185C92.2632 58.7393 93.9375 54.6544 93.9375 49.8637C93.9375 45.1019 92.2591 41.0435 88.9022 37.6886C85.5452 34.3337 81.4798 32.6562 76.7058 32.6562C74.895 32.6562 73.1215 32.9809 71.3854 33.6302C69.6493 34.2795 68.0648 35.2091 66.632 36.419L34.5989 65.3123C33.0166 66.8244 31.2225 67.9577 29.2166 68.7122C27.2106 69.4666 25.1118 69.8437 22.9203 69.8437Z" fill="black"/>
</svg>
