<svg width="100" height="100" viewBox="0 0 100 100" fill="none" xmlns="http://www.w3.org/2000/svg">
<path d="M40.6243 82.9694C37.6743 82.9694 35.1573 81.9451 33.0733 79.8965C30.9893 77.8479 29.9125 75.3305 29.8431 72.3444C26.5792 71.7541 23.8709 70.1879 21.7181 67.6456C19.5653 65.1035 18.4889 62.1321 18.4889 58.7316C18.4889 57.523 18.6365 56.3225 18.9316 55.1302C19.2268 53.9379 19.7042 52.8184 20.3639 51.7715C19.3917 50.5909 18.6625 49.2645 18.1764 47.7921C17.6903 46.3198 17.4473 44.7643 17.4473 43.1257C17.4473 39.5467 18.6452 36.4558 21.041 33.8529C23.4368 31.25 26.4056 29.7576 29.9473 29.3757C29.8778 29.1326 29.8431 28.8635 29.8431 28.5684V27.6048C29.8084 24.584 30.8414 22.0232 32.9421 19.9225C35.0428 17.8218 37.6035 16.7715 40.6243 16.7715C42.7424 16.7715 44.4898 17.1975 45.8664 18.0496C47.2431 18.9018 48.6207 20.1597 49.9993 21.8236C51.4924 20.1569 52.8813 18.8982 54.166 18.0475C55.4507 17.1968 57.1868 16.7715 59.3743 16.7715C62.3315 16.7715 64.859 17.8392 66.9567 19.9746C69.0546 22.11 70.1035 24.6708 70.1035 27.6569C70.1035 28.0041 70.0948 28.3166 70.0775 28.5944C70.0601 28.8722 70.0341 29.15 69.9993 29.4277C73.5063 29.775 76.4837 31.237 78.9316 33.8138C81.3796 36.3906 82.6035 39.4945 82.6035 43.1257C82.6035 44.7643 82.3344 46.3198 81.7962 47.7921C81.258 49.2645 80.5202 50.5996 79.5827 51.7975C80.2077 52.8218 80.6938 53.9281 81.041 55.1164C81.3882 56.3046 81.5618 57.5074 81.5618 58.7246C81.5618 62.1795 80.4768 65.1829 78.3066 67.735C76.1365 70.2871 73.4021 71.8236 70.1035 72.3444C69.9993 75.3305 68.9225 77.8479 66.8729 79.8965C64.8233 81.9451 62.3238 82.9694 59.3743 82.9694C57.1521 82.9694 55.4073 82.5527 54.14 81.7194C52.8726 80.8861 51.4924 79.584 49.9993 77.8131C48.5063 79.5493 47.1174 80.8427 45.8327 81.6934C44.548 82.5441 42.8118 82.9694 40.6243 82.9694ZM51.3535 27.5007V72.2923C51.3535 74.5125 52.1396 76.4043 53.7117 77.9678C55.284 79.5314 57.1864 80.3131 59.419 80.3131C61.5767 80.3131 63.4195 79.5927 64.9473 78.1517C66.475 76.7107 67.3084 74.8618 67.4473 72.6048C65.2146 72.5701 63.1391 72.0406 61.2207 71.0163C59.3023 69.992 57.7146 68.577 56.4577 66.7715C56.2146 66.4937 56.1251 66.1783 56.189 65.8253C56.253 65.4723 56.4467 65.1974 56.7702 65.0006C57.048 64.7576 57.3766 64.668 57.756 64.732C58.1355 64.796 58.4319 64.9723 58.6452 65.2611C59.663 66.7762 60.9764 67.9276 62.5856 68.7151C64.1948 69.5027 65.9021 69.8965 67.7077 69.8965C70.8696 69.8965 73.5264 68.8293 75.6781 66.695C77.8298 64.5606 78.9056 61.9125 78.9056 58.7506C78.9056 57.9057 78.7928 57.0608 78.5671 56.216C78.3414 55.371 78.0549 54.5493 77.7077 53.7506C76.5271 54.7576 75.1608 55.5388 73.6087 56.0944C72.0566 56.65 70.4368 56.9277 68.7493 56.9277C68.3709 56.9277 68.0592 56.805 67.8145 56.5595C67.5697 56.314 67.4473 56.0015 67.4473 55.622C67.4473 55.2425 67.5697 54.9225 67.8145 54.6621C68.0592 54.4017 68.3709 54.2715 68.7493 54.2715C71.9112 54.2715 74.568 53.2043 76.7198 51.07C78.8714 48.9356 79.9473 46.2875 79.9473 43.1257C79.9473 40.1088 78.8882 37.5229 76.7702 35.3682C74.6521 33.2134 72.1 32.0666 69.1139 31.9277C68.4599 33.2472 67.5992 34.4017 66.532 35.3913C65.4646 36.3809 64.2419 37.1361 62.8639 37.6569C62.5514 37.7958 62.234 37.7929 61.9115 37.6483C61.5891 37.5035 61.3857 37.2634 61.3014 36.9277C61.1625 36.6152 61.1539 36.2854 61.2754 35.9382C61.3969 35.5909 61.6487 35.3479 62.0306 35.209C63.6625 34.6534 64.9733 33.6725 65.9629 32.2663C66.9525 30.86 67.4473 29.2482 67.4473 27.4308C67.4473 25.2551 66.6566 23.3774 65.0753 21.7975C63.494 20.2177 61.5929 19.4277 59.3722 19.4277C57.1514 19.4277 55.2598 20.2182 53.6973 21.7991C52.1348 23.38 51.3535 25.2805 51.3535 27.5007ZM48.6973 72.2923V27.5007C48.6973 25.2805 47.9066 23.38 46.3253 21.7991C44.744 20.2182 42.8429 19.4277 40.6222 19.4277C38.4014 19.4277 36.5098 20.2197 34.9473 21.8037C33.3848 23.3876 32.6035 25.2919 32.6035 27.5164C32.6035 29.2767 33.0896 30.86 34.0618 32.2663C35.0341 33.6725 36.3362 34.6534 37.9681 35.209C38.2806 35.3479 38.5323 35.586 38.7233 35.9235C38.9143 36.2608 38.9636 36.5684 38.8713 36.8462C38.7131 37.1692 38.4622 37.4024 38.1187 37.5459C37.7753 37.6893 37.4125 37.6916 37.0306 37.5527C35.6526 37.0319 34.4299 36.2941 33.3626 35.3392C32.2953 34.3843 31.452 33.2472 30.8327 31.9277C27.8466 32.1013 25.3118 33.2559 23.2285 35.3913C21.1452 37.5267 20.1035 40.116 20.1035 43.1593C20.1035 46.2987 21.1707 48.9356 23.305 51.07C25.4393 53.2043 28.0875 54.2715 31.2493 54.2715C31.6278 54.2715 31.9481 54.4029 32.2103 54.6658C32.4724 54.9286 32.6035 55.2498 32.6035 55.6293C32.6035 56.0088 32.4724 56.3201 32.2103 56.5631C31.9481 56.8062 31.6278 56.9277 31.2493 56.9277C29.5601 56.9277 27.9486 56.65 26.4148 56.0944C24.8809 55.5388 23.5237 54.7576 22.3431 53.7506C21.9612 54.584 21.666 55.4173 21.4577 56.2506C21.2493 57.084 21.1452 57.9173 21.1452 58.7506C21.1452 61.9125 22.2123 64.5606 24.3466 66.695C26.481 68.8293 29.1291 69.8965 32.291 69.8965C34.1171 69.8965 35.8239 69.4969 37.4112 68.6977C38.9985 67.8986 40.3126 66.7531 41.3535 65.2611C41.5668 64.9723 41.8632 64.796 42.2427 64.732C42.6221 64.668 42.9681 64.7402 43.2806 64.9486C43.5584 65.1569 43.732 65.4434 43.8014 65.8079C43.8709 66.1725 43.7841 66.4937 43.541 66.7715C42.2147 68.565 40.5923 69.9695 38.6738 70.985C36.7553 72.0005 34.6971 72.5404 32.4993 72.6048C32.6035 74.827 33.4368 76.6673 34.9993 78.1256C36.5618 79.584 38.422 80.3131 40.5797 80.3131C42.8123 80.3131 44.7234 79.5314 46.313 77.9678C47.9025 76.4043 48.6973 74.5125 48.6973 72.2923Z" fill="black"/>
</svg>
